<svg width="68" height="84" viewBox="0 0 68 84" fill="none" xmlns="http://www.w3.org/2000/svg">
<path d="M30.8748 62.4167H37.1248V35.6458H30.8748V62.4167ZM33.9998 28.7708C35.0033 28.7708 35.8445 28.4314 36.5233 27.7526C37.2021 27.0738 37.5415 26.2326 37.5415 25.2292C37.5415 24.2257 37.2021 23.3845 36.5233 22.7057C35.8445 22.0269 35.0033 21.6875 33.9998 21.6875C32.9964 21.6875 32.1552 22.0269 31.4764 22.7057C30.7976 23.3845 30.4582 24.2257 30.4582 25.2292C30.4582 26.2326 30.7976 27.0738 31.4764 27.7526C32.1552 28.4314 32.9964 28.7708 33.9998 28.7708ZM33.9998 83.5625C24.2776 81.1319 16.2915 75.4896 10.0415 66.6354C3.7915 57.7812 0.666504 48.0764 0.666504 37.5208V12.7292L33.9998 0.229156L67.3332 12.7292V37.5208C67.3332 48.0764 64.2082 57.7812 57.9582 66.6354C51.7082 75.4896 43.7221 81.1319 33.9998 83.5625ZM33.9998 77.1042C41.9859 74.4653 48.4964 69.4826 53.5311 62.1562C58.5658 54.8299 61.0832 46.618 61.0832 37.5208V17.1042L33.9998 6.89582L6.9165 17.1042V37.5208C6.9165 46.618 9.43386 54.8299 14.4686 62.1562C19.5033 69.4826 26.0137 74.4653 33.9998 77.1042Z" fill="#379CBC"/>
</svg>
