<svg width="22" height="26" viewBox="0 0 22 26" fill="none" xmlns="http://www.w3.org/2000/svg">
<path d="M6.68686 19.4981L10.5916 15.2967L14.5291 19.4981L16.0712 17.8314L12.1666 13.63L16.0712 9.42866L14.5291 7.76199L10.5916 11.9634L6.68686 7.76199L5.11187 9.42866L9.04937 13.63L5.11187 17.8314L6.68686 19.4981ZM3.40562 25.7134C2.88061 25.7134 2.42124 25.505 2.02749 25.0884C1.63374 24.6717 1.43687 24.1856 1.43687 23.63V3.83838H0.0915527V1.75505H6.2603V0.713379H14.9228V1.75505H21.0916V3.83838H19.7462V23.63C19.7462 24.1856 19.5494 24.6717 19.1556 25.0884C18.7619 25.505 18.3025 25.7134 17.7775 25.7134H3.40562ZM17.7775 3.83838H3.40562V23.63H17.7775V3.83838Z" fill="black" fill-opacity="0.5"/>
</svg>
