<svg width="21" height="21" viewBox="0 0 21 21" fill="none" xmlns="http://www.w3.org/2000/svg">
<path d="M8.4585 12.3333H16.3335V10.8333H9.9585L8.4585 12.3333ZM4.3335 12.3333H6.3085L12.6085 6.10833C12.7085 6.00833 12.7585 5.88333 12.7585 5.73333C12.7585 5.58333 12.7085 5.45833 12.6085 5.35833L11.2335 4.10833C11.1502 4.025 11.046 3.98333 10.921 3.98333C10.796 3.98333 10.6918 4.025 10.6085 4.10833L4.3335 10.4833V12.3333ZM0.333496 20.3333V1.83333C0.333496 1.44999 0.483496 1.10416 0.783496 0.795828C1.0835 0.487495 1.4335 0.333328 1.8335 0.333328H18.8335C19.2168 0.333328 19.5627 0.487495 19.871 0.795828C20.1793 1.10416 20.3335 1.44999 20.3335 1.83333V14.8333C20.3335 15.2167 20.1793 15.5625 19.871 15.8708C19.5627 16.1792 19.2168 16.3333 18.8335 16.3333H4.3335L0.333496 20.3333ZM1.8335 16.7083L3.7085 14.8333H18.8335V1.83333H1.8335V16.7083Z" fill="black" fill-opacity="0.5"/>
</svg>
