<svg width="30" height="30" viewBox="0 0 30 30" fill="none" xmlns="http://www.w3.org/2000/svg">
<path d="M5.325 23.4375C6.9 22.3375 8.4625 21.4938 10.0125 20.9063C11.5625 20.3188 13.225 20.025 15 20.025C16.775 20.025 18.4438 20.3188 20.0063 20.9063C21.5688 21.4938 23.1375 22.3375 24.7125 23.4375C25.8125 22.0875 26.5938 20.725 27.0563 19.35C27.5188 17.975 27.75 16.525 27.75 15C27.75 11.375 26.5313 8.34375 24.0938 5.90625C21.6563 3.46875 18.625 2.25 15 2.25C11.375 2.25 8.34375 3.46875 5.90625 5.90625C3.46875 8.34375 2.25 11.375 2.25 15C2.25 16.525 2.4875 17.975 2.9625 19.35C3.4375 20.725 4.225 22.0875 5.325 23.4375ZM14.993 16.125C13.5477 16.125 12.3313 15.6289 11.3438 14.6368C10.3563 13.6446 9.8625 12.4259 9.8625 10.9805C9.8625 9.53518 10.3586 8.31875 11.3507 7.33125C12.3429 6.34375 13.5616 5.85 15.007 5.85C16.4523 5.85 17.6688 6.34608 18.6563 7.33823C19.6438 8.33038 20.1375 9.54913 20.1375 10.9945C20.1375 12.4398 19.6414 13.6563 18.6493 14.6438C17.6571 15.6313 16.4384 16.125 14.993 16.125ZM15.0176 30C12.9558 30 11.0125 29.6063 9.1875 28.8188C7.3625 28.0313 5.76875 26.9563 4.40625 25.5938C3.04375 24.2313 1.96875 22.6404 1.18125 20.8213C0.39375 19.0021 0 17.0584 0 14.99C0 12.9217 0.39375 10.9813 1.18125 9.16875C1.96875 7.35625 3.04375 5.76875 4.40625 4.40625C5.76875 3.04375 7.35957 1.96875 9.17873 1.18125C10.9979 0.39375 12.9416 0 15.01 0C17.0783 0 19.0188 0.39375 20.8313 1.18125C22.6438 1.96875 24.2313 3.04375 25.5938 4.40625C26.9563 5.76875 28.0313 7.35665 28.8188 9.16995C29.6063 10.9833 30 12.9208 30 14.9825C30 17.0442 29.6063 18.9875 28.8188 20.8125C28.0313 22.6375 26.9563 24.2313 25.5938 25.5938C24.2313 26.9563 22.6434 28.0313 20.8301 28.8188C19.0168 29.6063 17.0793 30 15.0176 30ZM15 27.75C16.375 27.75 17.7188 27.55 19.0313 27.15C20.3438 26.75 21.6375 26.05 22.9125 25.05C21.6375 24.15 20.3375 23.4625 19.0125 22.9875C17.6875 22.5125 16.35 22.275 15 22.275C13.65 22.275 12.3125 22.5125 10.9875 22.9875C9.6625 23.4625 8.3625 24.15 7.0875 25.05C8.3625 26.05 9.65625 26.75 10.9688 27.15C12.2813 27.55 13.625 27.75 15 27.75ZM15 13.875C15.85 13.875 16.5438 13.6063 17.0813 13.0688C17.6188 12.5313 17.8875 11.8375 17.8875 10.9875C17.8875 10.1375 17.6188 9.44375 17.0813 8.90625C16.5438 8.36875 15.85 8.1 15 8.1C14.15 8.1 13.4563 8.36875 12.9188 8.90625C12.3813 9.44375 12.1125 10.1375 12.1125 10.9875C12.1125 11.8375 12.3813 12.5313 12.9188 13.0688C13.4563 13.6063 14.15 13.875 15 13.875Z" fill="black"/>
</svg>
