<svg width="34" height="28" viewBox="0 0 34 28" fill="none" xmlns="http://www.w3.org/2000/svg">
<path d="M12.6668 20.75L17.0002 17.375L21.3335 20.75L19.6668 15.4167L23.7502 12H18.7502L17.0002 6.91666L15.2502 12H10.2502L14.3335 15.4167L12.6668 20.75ZM2.8335 27.3333C2.11127 27.3333 1.51405 27.0972 1.04183 26.625C0.569607 26.1528 0.333496 25.5556 0.333496 24.8333V18.4583C1.36127 18.2361 2.21544 17.7153 2.896 16.8958C3.57655 16.0764 3.91683 15.1111 3.91683 14C3.91683 12.8889 3.57655 11.9167 2.896 11.0833C2.21544 10.25 1.36127 9.73611 0.333496 9.54166V3.16666C0.333496 2.44444 0.569607 1.84722 1.04183 1.375C1.51405 0.902775 2.11127 0.666664 2.8335 0.666664H31.1668C31.889 0.666664 32.4863 0.902775 32.9585 1.375C33.4307 1.84722 33.6668 2.44444 33.6668 3.16666V9.54166C32.639 9.73611 31.7849 10.25 31.1043 11.0833C30.4238 11.9167 30.0835 12.8889 30.0835 14C30.0835 15.1111 30.4238 16.0764 31.1043 16.8958C31.7849 17.7153 32.639 18.2361 33.6668 18.4583V24.8333C33.6668 25.5556 33.4307 26.1528 32.9585 26.625C32.4863 27.0972 31.889 27.3333 31.1668 27.3333H2.8335ZM2.8335 24.8333H31.1668V20.2917C30.1113 19.5694 29.2502 18.6667 28.5835 17.5833C27.9168 16.5 27.5835 15.3056 27.5835 14C27.5835 12.6944 27.9168 11.5 28.5835 10.4167C29.2502 9.33333 30.1113 8.43055 31.1668 7.70833V3.16666H2.8335V7.70833C3.91683 8.43055 4.78488 9.33333 5.43766 10.4167C6.09044 11.5 6.41683 12.6944 6.41683 14C6.41683 15.3056 6.09044 16.5 5.43766 17.5833C4.78488 18.6667 3.91683 19.5694 2.8335 20.2917V24.8333Z" fill="black" fill-opacity="0.5"/>
</svg>
