<svg width="21" height="25" viewBox="0 0 21 25" fill="none" xmlns="http://www.w3.org/2000/svg">
<path d="M9.2915 16.3116L16.4165 9.47163L15.104 8.24163L9.38525 13.7316L6.229 10.7016L4.854 12.0216L9.2915 16.3116ZM10.6665 24.2916C7.74984 23.5916 5.354 21.9666 3.479 19.4166C1.604 16.8666 0.666504 14.0716 0.666504 11.0316V3.89163L10.6665 0.291626L20.6665 3.89163V11.0316C20.6665 14.0716 19.729 16.8666 17.854 19.4166C15.979 21.9666 13.5832 23.5916 10.6665 24.2916ZM10.6665 22.4316C13.0623 21.6716 15.0155 20.2366 16.5259 18.1266C18.0363 16.0166 18.7915 13.6516 18.7915 11.0316V5.15163L10.6665 2.21163L2.5415 5.15163V11.0316C2.5415 13.6516 3.29671 16.0166 4.80713 18.1266C6.31755 20.2366 8.27067 21.6716 10.6665 22.4316Z" fill="black" fill-opacity="0.5"/>
</svg>
