<svg width="35" height="37" viewBox="0 0 35 37" fill="none" xmlns="http://www.w3.org/2000/svg">
<path d="M11.2697 27.8674L17.5916 21.8174L23.9666 27.8674L26.4634 25.4674L20.1416 19.4174L26.4634 13.3674L23.9666 10.9674L17.5916 17.0174L11.2697 10.9674L8.71968 13.3674L15.0947 19.4174L8.71968 25.4674L11.2697 27.8674ZM5.95718 36.8174C5.10718 36.8174 4.36343 36.5174 3.72593 35.9174C3.08843 35.3174 2.76968 34.6174 2.76968 33.8174V5.31738H0.591553V2.31738H10.5791V0.817383H24.6041V2.31738H34.5916V5.31738H32.4134V33.8174C32.4134 34.6174 32.0947 35.3174 31.4572 35.9174C30.8197 36.5174 30.0759 36.8174 29.2259 36.8174H5.95718ZM29.2259 5.31738H5.95718V33.8174H29.2259V5.31738Z" fill="black" fill-opacity="0.5"/>
</svg>
