<svg width="28" height="34" viewBox="0 0 28 34" fill="none" xmlns="http://www.w3.org/2000/svg">
<path d="M12.1665 22.5416L21.6665 13.0416L19.9165 11.3333L12.2915 18.9583L8.08317 14.75L6.24984 16.5833L12.1665 22.5416ZM13.9998 33.625C10.1109 32.6527 6.9165 30.3958 4.4165 26.8541C1.9165 23.3125 0.666504 19.4305 0.666504 15.2083V5.29163L13.9998 0.291626L27.3332 5.29163V15.2083C27.3332 19.4305 26.0832 23.3125 23.5832 26.8541C21.0832 30.3958 17.8887 32.6527 13.9998 33.625ZM13.9998 31.0416C17.1943 29.9861 19.7984 27.993 21.8123 25.0625C23.8262 22.1319 24.8332 18.8472 24.8332 15.2083V7.04163L13.9998 2.95829L3.1665 7.04163V15.2083C3.1665 18.8472 4.17345 22.1319 6.18734 25.0625C8.20123 27.993 10.8054 29.9861 13.9998 31.0416Z" fill="black" fill-opacity="0.5"/>
</svg>
