<svg width="25" height="21" viewBox="0 0 25 21" fill="none" xmlns="http://www.w3.org/2000/svg">
<path d="M9.2135 15.7292L12.3335 13.1979L15.4535 15.7292L14.2535 11.7292L17.1935 9.16666H13.5935L12.3335 5.35416L11.0735 9.16666H7.4735L10.4135 11.7292L9.2135 15.7292ZM2.1335 20.6667C1.6135 20.6667 1.1835 20.4896 0.843496 20.1354C0.503496 19.7812 0.333496 19.3333 0.333496 18.7917V14.0104C1.0735 13.8437 1.6885 13.4531 2.1785 12.8385C2.6685 12.224 2.9135 11.5 2.9135 10.6667C2.9135 9.83333 2.6685 9.10416 2.1785 8.47916C1.6885 7.85416 1.0735 7.46875 0.333496 7.32291V2.54166C0.333496 2 0.503496 1.55208 0.843496 1.19791C1.1835 0.843747 1.6135 0.666664 2.1335 0.666664H22.5335C23.0535 0.666664 23.4835 0.843747 23.8235 1.19791C24.1635 1.55208 24.3335 2 24.3335 2.54166V7.32291C23.5935 7.46875 22.9785 7.85416 22.4885 8.47916C21.9985 9.10416 21.7535 9.83333 21.7535 10.6667C21.7535 11.5 21.9985 12.224 22.4885 12.8385C22.9785 13.4531 23.5935 13.8437 24.3335 14.0104V18.7917C24.3335 19.3333 24.1635 19.7812 23.8235 20.1354C23.4835 20.4896 23.0535 20.6667 22.5335 20.6667H2.1335ZM2.1335 18.7917H22.5335V15.3854C21.7735 14.8437 21.1535 14.1667 20.6735 13.3542C20.1935 12.5417 19.9535 11.6458 19.9535 10.6667C19.9535 9.6875 20.1935 8.79166 20.6735 7.97916C21.1535 7.16666 21.7735 6.48958 22.5335 5.94791V2.54166H2.1335V5.94791C2.9135 6.48958 3.5385 7.16666 4.0085 7.97916C4.4785 8.79166 4.7135 9.6875 4.7135 10.6667C4.7135 11.6458 4.4785 12.5417 4.0085 13.3542C3.5385 14.1667 2.9135 14.8437 2.1335 15.3854V18.7917Z" fill="black" fill-opacity="0.5"/>
</svg>
