<svg width="84" height="84" viewBox="0 0 84 84" fill="none" xmlns="http://www.w3.org/2000/svg">
<path d="M15.1252 65.4375C19.5002 62.3819 23.8404 60.0382 28.146 58.4062C32.4516 56.7743 37.0696 55.9583 42.0002 55.9583C46.9307 55.9583 51.5661 56.7743 55.9064 58.4062C60.2467 60.0382 64.6043 62.3819 68.9793 65.4375C72.0349 61.6875 74.205 57.9028 75.4897 54.0833C76.7745 50.2639 77.4168 46.2361 77.4168 42C77.4168 31.9305 74.0314 23.5104 67.2606 16.7396C60.4897 9.96873 52.0696 6.58331 42.0002 6.58331C31.9307 6.58331 23.5106 9.96873 16.7397 16.7396C9.96891 23.5104 6.5835 31.9305 6.5835 42C6.5835 46.2361 7.24322 50.2639 8.56266 54.0833C9.88211 57.9028 12.0696 61.6875 15.1252 65.4375ZM41.9808 45.125C37.9659 45.125 34.587 43.747 31.8439 40.991C29.1009 38.2351 27.7293 34.8496 27.7293 30.8348C27.7293 26.8199 29.1073 23.441 31.8633 20.6979C34.6193 17.9548 38.0047 16.5833 42.0195 16.5833C46.0344 16.5833 49.4134 17.9613 52.1564 20.7173C54.8995 23.4732 56.271 26.8587 56.271 30.8735C56.271 34.8884 54.893 38.2673 52.137 41.0104C49.3811 43.7535 45.9957 45.125 41.9808 45.125ZM42.0489 83.6667C36.322 83.6667 30.9238 82.5729 25.8543 80.3854C20.7849 78.1979 16.3578 75.2118 12.5731 71.4271C8.78836 67.6423 5.80225 63.2234 3.61475 58.1702C1.42725 53.117 0.333496 47.7177 0.333496 41.9723C0.333496 36.2269 1.42725 30.8368 3.61475 25.8021C5.80225 20.7673 8.78836 16.3576 12.5731 12.5729C16.3578 8.78817 20.7768 5.80206 25.83 3.61456C30.8831 1.42706 36.2825 0.333313 42.0279 0.333313C47.7733 0.333313 53.1634 1.42706 58.1981 3.61456C63.2328 5.80206 67.6425 8.78817 71.4272 12.5729C75.212 16.3576 78.1981 20.7685 80.3856 25.8054C82.5731 30.8423 83.6668 36.2243 83.6668 41.9512C83.6668 47.6782 82.5731 53.0764 80.3856 58.1458C78.1981 63.2153 75.212 67.6423 71.4272 71.4271C67.6425 75.2118 63.2317 78.1979 58.1948 80.3854C53.1578 82.5729 47.7759 83.6667 42.0489 83.6667ZM42.0002 77.4166C45.8196 77.4166 49.5522 76.8611 53.1981 75.75C56.8439 74.6389 60.4377 72.6944 63.9793 69.9166C60.4377 67.4166 56.8266 65.5069 53.146 64.1875C49.4654 62.868 45.7502 62.2083 42.0002 62.2083C38.2502 62.2083 34.5349 62.868 30.8543 64.1875C27.1738 65.5069 23.5627 67.4166 20.021 69.9166C23.5627 72.6944 27.1564 74.6389 30.8022 75.75C34.4481 76.8611 38.1807 77.4166 42.0002 77.4166ZM42.0002 38.875C44.3613 38.875 46.2884 38.1285 47.7814 36.6354C49.2745 35.1423 50.021 33.2153 50.021 30.8541C50.021 28.493 49.2745 26.566 47.7814 25.0729C46.2884 23.5798 44.3613 22.8333 42.0002 22.8333C39.6391 22.8333 37.712 23.5798 36.2189 25.0729C34.7259 26.566 33.9793 28.493 33.9793 30.8541C33.9793 33.2153 34.7259 35.1423 36.2189 36.6354C37.712 38.1285 39.6391 38.875 42.0002 38.875Z" fill="black"/>
</svg>
