<svg width="34" height="34" viewBox="0 0 34 34" fill="none" xmlns="http://www.w3.org/2000/svg">
<path d="M13.8752 20.3333H27.0002V17.8333H16.3752L13.8752 20.3333ZM7.00016 20.3333H10.2918L20.7918 9.95833C20.9585 9.79166 21.0418 9.58333 21.0418 9.33333C21.0418 9.08333 20.9585 8.87499 20.7918 8.70833L18.5002 6.62499C18.3613 6.48611 18.1877 6.41666 17.9793 6.41666C17.771 6.41666 17.5974 6.48611 17.4585 6.62499L7.00016 17.25V20.3333ZM0.333496 33.6667V2.83333C0.333496 2.19444 0.583496 1.61805 1.0835 1.10416C1.5835 0.590273 2.16683 0.333328 2.8335 0.333328H31.1668C31.8057 0.333328 32.3821 0.590273 32.896 1.10416C33.4099 1.61805 33.6668 2.19444 33.6668 2.83333V24.5C33.6668 25.1389 33.4099 25.7153 32.896 26.2292C32.3821 26.743 31.8057 27 31.1668 27H7.00016L0.333496 33.6667ZM2.8335 27.625L5.9585 24.5H31.1668V2.83333H2.8335V27.625Z" fill="black" fill-opacity="0.5"/>
</svg>
