<svg width="31" height="31" viewBox="0 0 31 31" fill="none" xmlns="http://www.w3.org/2000/svg">
<path d="M17.962 18.4791C16.8256 18.4791 15.8597 17.9323 15.0642 16.8385C14.2688 15.7448 13.871 14.4166 13.871 12.8541C13.871 11.2916 14.2688 9.9635 15.0642 8.86975C15.8597 7.776 16.8256 7.22913 17.962 7.22913C19.0983 7.22913 20.0642 7.776 20.8597 8.86975C21.6551 9.9635 22.0529 11.2916 22.0529 12.8541C22.0529 14.4166 21.6551 15.7448 20.8597 16.8385C20.0642 17.9323 19.0983 18.4791 17.962 18.4791ZM7.05287 25.0416C6.49037 25.0416 6.00883 24.7662 5.60827 24.2155C5.2077 23.6647 5.00741 23.0026 5.00741 22.2291V3.47913C5.00741 2.70569 5.2077 2.04358 5.60827 1.4928C6.00883 0.942017 6.49037 0.666626 7.05287 0.666626H28.8711C29.4336 0.666626 29.9151 0.942017 30.3157 1.4928C30.7162 2.04358 30.9165 2.70569 30.9165 3.47913V22.2291C30.9165 23.0026 30.7162 23.6647 30.3157 24.2155C29.9151 24.7662 29.4336 25.0416 28.8711 25.0416H7.05287ZM10.462 22.2291H25.462C25.462 20.9166 25.7915 19.8073 26.4506 18.901C27.1097 17.9948 27.9165 17.5416 28.8711 17.5416V8.16663C27.9165 8.16663 27.1097 7.7135 26.4506 6.80725C25.7915 5.901 25.462 4.79163 25.462 3.47913H10.462C10.462 4.79163 10.1324 5.901 9.47332 6.80725C8.81423 7.7135 8.00741 8.16663 7.05287 8.16663V17.5416C8.00741 17.5416 8.81423 17.9948 9.47332 18.901C10.1324 19.8073 10.462 20.9166 10.462 22.2291ZM26.8256 30.6666H2.96196C2.39946 30.6666 1.91792 30.3912 1.51736 29.8405C1.11679 29.2897 0.916504 28.6276 0.916504 27.8541V6.29163H2.96196V27.8541H26.8256V30.6666Z" fill="#59B82C" fill-opacity="0.7"/>
</svg>
