<svg width="30" height="30" viewBox="0 0 30 30" fill="none" xmlns="http://www.w3.org/2000/svg">
<path d="M2.5 25.9583C4.16667 24.4028 6.05411 23.1458 8.16233 22.1875C10.2706 21.2292 12.5484 20.75 14.9957 20.75C17.443 20.75 19.7222 21.2292 21.8333 22.1875C23.9444 23.1458 25.8333 24.4028 27.5 25.9583V2.5H2.5V25.9583ZM15.0833 17.4583C16.6944 17.4583 18.0556 16.9028 19.1667 15.7917C20.2778 14.6806 20.8333 13.3194 20.8333 11.7083C20.8333 10.0972 20.2778 8.73611 19.1667 7.625C18.0556 6.51389 16.6944 5.95833 15.0833 5.95833C13.4722 5.95833 12.1111 6.51389 11 7.625C9.88889 8.73611 9.33333 10.0972 9.33333 11.7083C9.33333 13.3194 9.88889 14.6806 11 15.7917C12.1111 16.9028 13.4722 17.4583 15.0833 17.4583ZM2.5 30C1.83333 30 1.25 29.75 0.75 29.25C0.25 28.75 0 28.1667 0 27.5V2.5C0 1.83333 0.25 1.25 0.75 0.75C1.25 0.25 1.83333 0 2.5 0H27.5C28.1667 0 28.75 0.25 29.25 0.75C29.75 1.25 30 1.83333 30 2.5V27.5C30 28.1667 29.75 28.75 29.25 29.25C28.75 29.75 28.1667 30 27.5 30H2.5ZM4.79167 27.5H25.2083V27.125C23.7083 25.8472 22.0972 24.8819 20.375 24.2292C18.6528 23.5764 16.8611 23.25 15 23.25C13.1389 23.25 11.3472 23.5764 9.625 24.2292C7.90278 24.8819 6.29167 25.8472 4.79167 27.125V27.5ZM15.0833 14.9583C14.1806 14.9583 13.4132 14.6424 12.7812 14.0104C12.1493 13.3785 11.8333 12.6111 11.8333 11.7083C11.8333 10.8056 12.1493 10.0382 12.7812 9.40625C13.4132 8.77431 14.1806 8.45833 15.0833 8.45833C15.9861 8.45833 16.7535 8.77431 17.3854 9.40625C18.0174 10.0382 18.3333 10.8056 18.3333 11.7083C18.3333 12.6111 18.0174 13.3785 17.3854 14.0104C16.7535 14.6424 15.9861 14.9583 15.0833 14.9583Z" fill="black"/>
</svg>
