<svg width="19" height="19" viewBox="0 0 19 19" fill="none" xmlns="http://www.w3.org/2000/svg">
<path d="M12.625 6.375H6.375V12.625H12.625V6.375ZM10.5417 10.5417H8.45833V8.45833H10.5417V10.5417ZM18.875 8.45833V6.375H16.7917V4.29167C16.7917 3.14583 15.8542 2.20833 14.7083 2.20833H12.625V0.125H10.5417V2.20833H8.45833V0.125H6.375V2.20833H4.29167C3.14583 2.20833 2.20833 3.14583 2.20833 4.29167V6.375H0.125V8.45833H2.20833V10.5417H0.125V12.625H2.20833V14.7083C2.20833 15.8542 3.14583 16.7917 4.29167 16.7917H6.375V18.875H8.45833V16.7917H10.5417V18.875H12.625V16.7917H14.7083C15.8542 16.7917 16.7917 15.8542 16.7917 14.7083V12.625H18.875V10.5417H16.7917V8.45833H18.875ZM14.7083 14.7083H4.29167V4.29167H14.7083V14.7083Z" fill="#65D330"/>
</svg>
