<svg width="21" height="21" viewBox="0 0 21 21" fill="none" xmlns="http://www.w3.org/2000/svg">
<path d="M10.5002 0.083313C4.75016 0.083313 0.0834961 4.74998 0.0834961 10.5C0.0834961 16.25 4.75016 20.9166 10.5002 20.9166C16.2502 20.9166 20.9168 16.25 20.9168 10.5C20.9168 4.74998 16.2502 0.083313 10.5002 0.083313ZM10.5002 4.24998C12.5106 4.24998 14.146 5.8854 14.146 7.89581C14.146 9.90623 12.5106 11.5416 10.5002 11.5416C8.48975 11.5416 6.85433 9.90623 6.85433 7.89581C6.85433 5.8854 8.48975 4.24998 10.5002 4.24998ZM10.5002 18.8333C8.38558 18.8333 5.88558 17.9791 4.10433 15.8333C5.86475 14.4583 8.0835 13.625 10.5002 13.625C12.9168 13.625 15.1356 14.4583 16.896 15.8333C15.1147 17.9791 12.6147 18.8333 10.5002 18.8333Z" fill="#BF5BD8"/>
</svg>
