<svg width="25" height="25" viewBox="0 0 25 25" fill="none" xmlns="http://www.w3.org/2000/svg">
<path d="M12.5 25C15.8152 25 18.9946 23.683 21.3388 21.3388C23.683 18.9946 25 15.8152 25 12.5C25 9.18479 23.683 6.00537 21.3388 3.66117C18.9946 1.31696 15.8152 0 12.5 0C9.18479 0 6.00537 1.31696 3.66117 3.66117C1.31696 6.00537 0 9.18479 0 12.5C0 15.8152 1.31696 18.9946 3.66117 21.3388C6.00537 23.683 9.18479 25 12.5 25ZM10.5469 16.4062H11.7188V13.2812H10.5469C9.89746 13.2812 9.375 12.7588 9.375 12.1094C9.375 11.46 9.89746 10.9375 10.5469 10.9375H12.8906C13.54 10.9375 14.0625 11.46 14.0625 12.1094V16.4062H14.4531C15.1025 16.4062 15.625 16.9287 15.625 17.5781C15.625 18.2275 15.1025 18.75 14.4531 18.75H10.5469C9.89746 18.75 9.375 18.2275 9.375 17.5781C9.375 16.9287 9.89746 16.4062 10.5469 16.4062ZM12.5 6.25C12.9144 6.25 13.3118 6.41462 13.6049 6.70765C13.8979 7.00067 14.0625 7.3981 14.0625 7.8125C14.0625 8.2269 13.8979 8.62433 13.6049 8.91735C13.3118 9.21038 12.9144 9.375 12.5 9.375C12.0856 9.375 11.6882 9.21038 11.3951 8.91735C11.1021 8.62433 10.9375 8.2269 10.9375 7.8125C10.9375 7.3981 11.1021 7.00067 11.3951 6.70765C11.6882 6.41462 12.0856 6.25 12.5 6.25Z" fill="#92A2DA"/>
</svg>
