<svg width="21" height="25" viewBox="0 0 21 25" fill="none" xmlns="http://www.w3.org/2000/svg">
<path d="M18.8335 0H2.16683V2.08333H18.8335V0ZM2.16683 25H18.8335V22.9167H2.16683V25ZM18.8335 4.16667H2.16683C1.021 4.16667 0.0834961 5.10417 0.0834961 6.25V18.75C0.0834961 19.8958 1.021 20.8333 2.16683 20.8333H18.8335C19.9793 20.8333 20.9168 19.8958 20.9168 18.75V6.25C20.9168 5.10417 19.9793 4.16667 18.8335 4.16667ZM10.5002 7.03125C11.7918 7.03125 12.8439 8.08333 12.8439 9.375C12.8439 10.6667 11.7918 11.7188 10.5002 11.7188C9.2085 11.7188 8.15641 10.6667 8.15641 9.375C8.15641 8.08333 9.2085 7.03125 10.5002 7.03125ZM15.7085 17.7083H5.29183V16.1458C5.29183 14.4062 8.76058 13.5417 10.5002 13.5417C12.2397 13.5417 15.7085 14.4062 15.7085 16.1458V17.7083Z" fill="#48CAC2"/>
</svg>
