<svg width="30" height="30" viewBox="0 0 30 30" fill="none" xmlns="http://www.w3.org/2000/svg">
<g clip-path="url(#clip0_35_72)">
<path d="M18.75 11.25H11.25V18.75H18.75V11.25ZM16.25 16.25H13.75V13.75H16.25V16.25ZM26.25 13.75V11.25H23.75V8.75C23.75 7.375 22.625 6.25 21.25 6.25H18.75V3.75H16.25V6.25H13.75V3.75H11.25V6.25H8.75C7.375 6.25 6.25 7.375 6.25 8.75V11.25H3.75V13.75H6.25V16.25H3.75V18.75H6.25V21.25C6.25 22.625 7.375 23.75 8.75 23.75H11.25V26.25H13.75V23.75H16.25V26.25H18.75V23.75H21.25C22.625 23.75 23.75 22.625 23.75 21.25V18.75H26.25V16.25H23.75V13.75H26.25ZM21.25 21.25H8.75V8.75H21.25V21.25Z" fill="#65D330"/>
</g>
<defs>
<clipPath id="clip0_35_72">
<rect width="30" height="30" fill="white"/>
</clipPath>
</defs>
</svg>
