<svg width="31" height="31" viewBox="0 0 31 31" fill="none" xmlns="http://www.w3.org/2000/svg">
<path d="M15.6664 19L11.6727 22.4833C10.6227 23.4167 10.0415 24.6333 10.0415 25.9333C10.0415 28.6333 12.5727 30.8333 15.6664 30.8333C18.76 30.8333 21.2912 28.6333 21.2912 25.9333C21.2912 24.6333 20.71 23.4 19.66 22.4833L15.6664 19Z" fill="#FF8B8B"/>
<path d="M23.1659 7.50004L22.3409 8.41671C20.1285 10.8667 15.6661 9.48337 15.6661 6.33337V0.833374C15.6661 0.833374 0.666504 7.50004 0.666504 19.1667C0.666504 24.0334 3.59143 28.2834 7.96006 30.6C6.91009 29.2834 6.29136 27.6667 6.29136 25.9334C6.29136 23.7334 7.26633 21.6667 9.04754 20.1L15.6661 14.3334L22.2847 20.1167C24.0659 21.6667 25.0409 23.7334 25.0409 25.95C25.0409 27.65 24.4596 29.2167 23.4472 30.5334C26.9908 28.6167 29.6158 25.4334 30.4032 21.7C31.6407 15.7834 28.397 10.2 23.1659 7.50004Z" fill="#FF8B8B"/>
</svg>
