<svg width="30" height="31" viewBox="0 0 30 31" fill="none" xmlns="http://www.w3.org/2000/svg">
<path d="M15 30.5C18.9782 30.5 22.7936 28.9196 25.6066 26.1066C28.4196 23.2936 30 19.4782 30 15.5C30 11.5218 28.4196 7.70644 25.6066 4.8934C22.7936 2.08035 18.9782 0.5 15 0.5C11.0218 0.5 7.20644 2.08035 4.3934 4.8934C1.58035 7.70644 0 11.5218 0 15.5C0 19.4782 1.58035 23.2936 4.3934 26.1066C7.20644 28.9196 11.0218 30.5 15 30.5ZM12.6562 20.1875H14.0625V16.4375H12.6562C11.877 16.4375 11.25 15.8105 11.25 15.0312C11.25 14.252 11.877 13.625 12.6562 13.625H15.4688C16.248 13.625 16.875 14.252 16.875 15.0312V20.1875H17.3438C18.123 20.1875 18.75 20.8145 18.75 21.5938C18.75 22.373 18.123 23 17.3438 23H12.6562C11.877 23 11.25 22.373 11.25 21.5938C11.25 20.8145 11.877 20.1875 12.6562 20.1875ZM15 8C15.4973 8 15.9742 8.19754 16.3258 8.54918C16.6775 8.90081 16.875 9.37772 16.875 9.875C16.875 10.3723 16.6775 10.8492 16.3258 11.2008C15.9742 11.5525 15.4973 11.75 15 11.75C14.5027 11.75 14.0258 11.5525 13.6742 11.2008C13.3225 10.8492 13.125 10.3723 13.125 9.875C13.125 9.37772 13.3225 8.90081 13.6742 8.54918C14.0258 8.19754 14.5027 8 15 8Z" fill="#92A2DA"/>
</svg>
