<svg width="20" height="20" viewBox="0 0 20 20" fill="none" xmlns="http://www.w3.org/2000/svg">
<path d="M9.99966 12.1111L7.33723 14.4333C6.63725 15.0555 6.24976 15.8666 6.24976 16.7333C6.24976 18.5333 7.93721 20 9.99966 20C12.0621 20 13.7496 18.5333 13.7496 16.7333C13.7496 15.8666 13.3621 15.0444 12.6621 14.4333L9.99966 12.1111Z" fill="#FF8B8B"/>
<path d="M14.9996 4.44445L14.4496 5.05556C12.9747 6.68889 9.99974 5.76667 9.99974 3.66667V0C9.99974 0 0 4.44445 0 12.2222C0 15.4667 1.94995 18.3 4.86237 19.8444C4.16239 18.9667 3.7499 17.8889 3.7499 16.7333C3.7499 15.2667 4.39989 13.8889 5.58736 12.8444L9.99974 9L14.4121 12.8556C15.5996 13.8889 16.2496 15.2667 16.2496 16.7444C16.2496 17.8778 15.8621 18.9222 15.1871 19.8C17.5495 18.5222 19.2995 16.4 19.8245 13.9111C20.6495 9.96667 18.487 6.24445 14.9996 4.44445Z" fill="#FF8B8B"/>
</svg>
