<svg width="42" height="50" viewBox="0 0 42 50" fill="none" xmlns="http://www.w3.org/2000/svg">
<path d="M37.6665 0H4.33317V4.16667H37.6665V0ZM4.33317 50H37.6665V45.8333H4.33317V50ZM37.6665 8.33333H4.33317C2.0415 8.33333 0.166504 10.2083 0.166504 12.5V37.5C0.166504 39.7917 2.0415 41.6667 4.33317 41.6667H37.6665C39.9582 41.6667 41.8332 39.7917 41.8332 37.5V12.5C41.8332 10.2083 39.9582 8.33333 37.6665 8.33333ZM20.9998 14.0625C23.5832 14.0625 25.6873 16.1667 25.6873 18.75C25.6873 21.3333 23.5832 23.4375 20.9998 23.4375C18.4165 23.4375 16.3123 21.3333 16.3123 18.75C16.3123 16.1667 18.4165 14.0625 20.9998 14.0625ZM31.4165 35.4167H10.5832V32.2917C10.5832 28.8125 17.5207 27.0833 20.9998 27.0833C24.479 27.0833 31.4165 28.8125 31.4165 32.2917V35.4167Z" fill="#48CAC2"/>
</svg>
