<svg width="38" height="38" viewBox="0 0 38 38" fill="none" xmlns="http://www.w3.org/2000/svg">
<path d="M25.25 12.75H12.75V25.25H25.25V12.75ZM21.0833 21.0833H16.9167V16.9167H21.0833V21.0833ZM37.75 16.9167V12.75H33.5833V8.58333C33.5833 6.29167 31.7083 4.41667 29.4167 4.41667H25.25V0.25H21.0833V4.41667H16.9167V0.25H12.75V4.41667H8.58333C6.29167 4.41667 4.41667 6.29167 4.41667 8.58333V12.75H0.25V16.9167H4.41667V21.0833H0.25V25.25H4.41667V29.4167C4.41667 31.7083 6.29167 33.5833 8.58333 33.5833H12.75V37.75H16.9167V33.5833H21.0833V37.75H25.25V33.5833H29.4167C31.7083 33.5833 33.5833 31.7083 33.5833 29.4167V25.25H37.75V21.0833H33.5833V16.9167H37.75ZM29.4167 29.4167H8.58333V8.58333H29.4167V29.4167Z" fill="#65D330"/>
</svg>
