<svg width="15" height="15" viewBox="0 0 15 15" fill="none" xmlns="http://www.w3.org/2000/svg">
<path d="M7.49974 9.08331L5.50292 10.825C4.97793 11.2916 4.68732 11.9 4.68732 12.55C4.68732 13.9 5.95291 15 7.49974 15C9.04658 15 10.3122 13.9 10.3122 12.55C10.3122 11.9 10.0216 11.2833 9.49657 10.825L7.49974 9.08331Z" fill="#FF8B8B"/>
<path d="M11.2497 3.33333L10.8372 3.79167C9.731 5.01667 7.4998 4.325 7.4998 2.75V0C7.4998 0 0 3.33333 0 9.16667C0 11.6 1.46246 13.725 3.64678 14.8833C3.12179 14.225 2.81243 13.4167 2.81243 12.55C2.81243 11.45 3.29991 10.4167 4.19052 9.63333L7.4998 6.75L10.8091 9.64167C11.6997 10.4167 12.1872 11.45 12.1872 12.5583C12.1872 13.4083 11.8966 14.1917 11.3903 14.85C13.1622 13.8917 14.4746 12.3 14.8684 10.4333C15.4871 7.475 13.8653 4.68333 11.2497 3.33333Z" fill="#FF8B8B"/>
</svg>
