<svg width="26" height="30" viewBox="0 0 26 30" fill="none" xmlns="http://www.w3.org/2000/svg">
<path d="M23 0H3V2.5H23V0ZM3 30H23V27.5H3V30ZM23 5H3C1.625 5 0.5 6.125 0.5 7.5V22.5C0.5 23.875 1.625 25 3 25H23C24.375 25 25.5 23.875 25.5 22.5V7.5C25.5 6.125 24.375 5 23 5ZM13 8.4375C14.55 8.4375 15.8125 9.7 15.8125 11.25C15.8125 12.8 14.55 14.0625 13 14.0625C11.45 14.0625 10.1875 12.8 10.1875 11.25C10.1875 9.7 11.45 8.4375 13 8.4375ZM19.25 21.25H6.75V19.375C6.75 17.2875 10.9125 16.25 13 16.25C15.0875 16.25 19.25 17.2875 19.25 19.375V21.25Z" fill="#48CAC2"/>
</svg>
