<svg width="50" height="51" viewBox="0 0 50 51" fill="none" xmlns="http://www.w3.org/2000/svg">
<path d="M25 50.5C31.6304 50.5 37.9893 47.8661 42.6777 43.1777C47.3661 38.4893 50 32.1304 50 25.5C50 18.8696 47.3661 12.5107 42.6777 7.82233C37.9893 3.13392 31.6304 0.5 25 0.5C18.3696 0.5 12.0107 3.13392 7.32233 7.82233C2.63392 12.5107 0 18.8696 0 25.5C0 32.1304 2.63392 38.4893 7.32233 43.1777C12.0107 47.8661 18.3696 50.5 25 50.5ZM21.0938 33.3125H23.4375V27.0625H21.0938C19.7949 27.0625 18.75 26.0176 18.75 24.7188C18.75 23.4199 19.7949 22.375 21.0938 22.375H25.7812C27.0801 22.375 28.125 23.4199 28.125 24.7188V33.3125H28.9062C30.2051 33.3125 31.25 34.3574 31.25 35.6562C31.25 36.9551 30.2051 38 28.9062 38H21.0938C19.7949 38 18.75 36.9551 18.75 35.6562C18.75 34.3574 19.7949 33.3125 21.0938 33.3125ZM25 13C25.8288 13 26.6237 13.3292 27.2097 13.9153C27.7958 14.5013 28.125 15.2962 28.125 16.125C28.125 16.9538 27.7958 17.7487 27.2097 18.3347C26.6237 18.9208 25.8288 19.25 25 19.25C24.1712 19.25 23.3763 18.9208 22.7903 18.3347C22.2042 17.7487 21.875 16.9538 21.875 16.125C21.875 15.2962 22.2042 14.5013 22.7903 13.9153C23.3763 13.3292 24.1712 13 25 13Z" fill="#92A2DA"/>
</svg>
