<svg width="31" height="31" viewBox="0 0 31 31" fill="none" xmlns="http://www.w3.org/2000/svg">
<path d="M28.5546 30.4165L24.8188 26.6807H3.9131V23.1335C3.9131 22.1775 4.15209 21.3599 4.63008 20.6807C5.10806 20.0014 5.72442 19.4857 6.47913 19.1335C7.98857 18.4542 9.4414 17.9259 10.8376 17.5486C12.2339 17.1712 13.6364 16.9574 15.0452 16.9071L0.177246 2.03915L1.79989 0.416504L30.1772 28.7939L28.5546 30.4165ZM6.17725 24.4165H22.5546L17.3093 19.1712C17.1081 19.1461 16.8942 19.1335 16.6678 19.1335H15.9886C14.5546 19.1335 13.1584 19.2781 11.7999 19.5674C10.4414 19.8568 8.9697 20.3913 7.38479 21.1712C7.03259 21.3473 6.74328 21.6178 6.51687 21.9825C6.29045 22.3473 6.17725 22.731 6.17725 23.1335V24.4165ZM25.4603 19.1335C26.2401 19.4857 26.8691 20.0014 27.3471 20.6807C27.825 21.3599 28.064 22.1775 28.064 23.1335V23.4354L22.6678 18.0391C23.1206 18.1901 23.5798 18.3599 24.0452 18.5486C24.5106 18.7373 24.9823 18.9322 25.4603 19.1335ZM18.6301 14.0014L16.8188 12.1901C17.5735 12.014 18.1898 11.6241 18.6678 11.0203C19.1458 10.4165 19.3848 9.7121 19.3848 8.90707C19.3848 7.9511 19.0577 7.14606 18.4037 6.49198C17.7496 5.83789 16.9445 5.51084 15.9886 5.51084C15.1835 5.51084 14.4791 5.74984 13.8754 6.22782C13.2716 6.70581 12.8816 7.32216 12.7055 8.07688L10.8942 6.26556C11.3722 5.30959 12.0703 4.56745 12.9886 4.03915C13.9068 3.51084 14.9068 3.24669 15.9886 3.24669C17.5735 3.24669 18.9131 3.79386 20.0074 4.8882C21.1018 5.98254 21.6489 7.32216 21.6489 8.90707C21.6489 9.98883 21.3848 10.9888 20.8565 11.9071C20.3282 12.8253 19.5861 13.5234 18.6301 14.0014Z" fill="black"/>
</svg>
