<svg width="31" height="31" viewBox="0 0 31 31" fill="none" xmlns="http://www.w3.org/2000/svg">
<path d="M2.89706 30.9165V28.871H27.6029V30.9165H2.89706ZM2.89706 2.96196V0.916504H27.6029V2.96196H2.89706ZM15.25 17.1438C16.4755 17.1438 17.5049 16.7574 18.3382 15.9847C19.1716 15.212 19.5882 14.2574 19.5882 13.121C19.5882 11.9847 19.1716 11.0301 18.3382 10.2574C17.5049 9.48469 16.4755 9.09832 15.25 9.09832C14.0245 9.09832 12.9951 9.48469 12.1618 10.2574C11.3284 11.0301 10.9118 11.9847 10.9118 13.121C10.9118 14.2574 11.3284 15.212 12.1618 15.9847C12.9951 16.7574 14.0245 17.1438 15.25 17.1438ZM2.45588 26.8256C1.86765 26.8256 1.35294 26.621 0.911765 26.212C0.470588 25.8029 0.25 25.3256 0.25 24.7801V7.05287C0.25 6.46196 0.470588 5.97332 0.911765 5.58696C1.35294 5.20059 1.86765 5.00741 2.45588 5.00741H28.0441C28.6324 5.00741 29.1471 5.21196 29.5882 5.62105C30.0294 6.03014 30.25 6.50741 30.25 7.05287V24.7801C30.25 25.3256 30.0294 25.8029 29.5882 26.212C29.1471 26.621 28.6324 26.8256 28.0441 26.8256H2.45588ZM5.69118 24.7801C6.94118 23.3483 8.42402 22.2745 10.1397 21.5585C11.8554 20.8426 13.5527 20.4847 15.2316 20.4847C16.9105 20.4847 18.6262 20.8426 20.3787 21.5585C22.1311 22.2745 23.6078 23.3483 24.8088 24.7801H28.0441V7.05287H2.45588V24.7801H5.69118ZM9.14706 24.7801H21.4265C20.6667 24.0983 19.7782 23.5529 18.761 23.1438C17.7439 22.7347 16.5735 22.5301 15.25 22.5301C13.9265 22.5301 12.7684 22.7347 11.7757 23.1438C10.7831 23.5529 9.90686 24.0983 9.14706 24.7801ZM15.2558 15.0983C14.6637 15.0983 14.1654 14.9051 13.761 14.5188C13.3566 14.1324 13.1544 13.6665 13.1544 13.121C13.1544 12.5756 13.3547 12.1097 13.7552 11.7233C14.1558 11.337 14.6521 11.1438 15.2442 11.1438C15.8363 11.1438 16.3346 11.337 16.739 11.7233C17.1434 12.1097 17.3456 12.5756 17.3456 13.121C17.3456 13.6665 17.1453 14.1324 16.7448 14.5188C16.3442 14.9051 15.8479 15.0983 15.2558 15.0983Z" fill="black"/>
</svg>
