<svg width="45" height="31" viewBox="0 0 45 31" fill="none" xmlns="http://www.w3.org/2000/svg">
<path d="M32.8125 15.3333H34.6875V12.2083L37.7344 13.75L38.6719 12.3333L35.625 10.75L38.6719 9.16667L37.7344 7.75L34.6875 9.29167V6.16667H32.8125V9.29167L29.7656 7.75L28.8281 9.16667L31.875 10.75L28.8281 12.3333L29.7656 13.75L32.8125 12.2083V15.3333ZM2.8125 30.75C2.0625 30.75 1.40625 30.5 0.84375 30C0.28125 29.5 0 28.9167 0 28.25V3.25C0 2.58333 0.28125 2 0.84375 1.5C1.40625 1 2.0625 0.75 2.8125 0.75H42.1875C42.9375 0.75 43.5938 1 44.1562 1.5C44.7188 2 45 2.58333 45 3.25V28.25C45 28.9167 44.7188 29.5 44.1562 30C43.5938 30.5 42.9375 30.75 42.1875 30.75H2.8125ZM27.7031 28.25H42.1875V3.25H2.8125V28.25H3.14062C4.51563 26.3333 6.27344 24.8194 8.41406 23.7083C10.5547 22.5972 12.8906 22.0417 15.4219 22.0417C17.9531 22.0417 20.2891 22.5972 22.4297 23.7083C24.5703 24.8194 26.3281 26.3333 27.7031 28.25ZM15.4219 19.0833C16.9844 19.0833 18.3125 18.5972 19.4062 17.625C20.5 16.6528 21.0469 15.4722 21.0469 14.0833C21.0469 12.6944 20.5 11.5139 19.4062 10.5417C18.3125 9.56944 16.9844 9.08333 15.4219 9.08333C13.8594 9.08333 12.5313 9.56944 11.4375 10.5417C10.3437 11.5139 9.79688 12.6944 9.79688 14.0833C9.79688 15.4722 10.3437 16.6528 11.4375 17.625C12.5313 18.5972 13.8594 19.0833 15.4219 19.0833ZM6.70312 28.25H24.1406C23.0279 27.0757 21.7107 26.1641 20.1889 25.5151C18.6671 24.8661 17.0781 24.5417 15.4219 24.5417C13.7656 24.5417 12.1797 24.8681 10.6641 25.5208C9.14844 26.1736 7.82812 27.0833 6.70312 28.25ZM15.4219 16.5833C14.625 16.5833 13.957 16.3438 13.418 15.8646C12.8789 15.3854 12.6094 14.7917 12.6094 14.0833C12.6094 13.375 12.8789 12.7813 13.418 12.3021C13.957 11.8229 14.625 11.5833 15.4219 11.5833C16.2188 11.5833 16.8867 11.8229 17.4258 12.3021C17.9648 12.7813 18.2344 13.375 18.2344 14.0833C18.2344 14.7917 17.9648 15.3854 17.4258 15.8646C16.8867 16.3438 16.2188 16.5833 15.4219 16.5833Z" fill="black"/>
</svg>
