<svg width="30" height="31" viewBox="0 0 30 31" fill="none" xmlns="http://www.w3.org/2000/svg">
<path d="M22.0894 22.9357C22.8074 22.9357 23.4176 22.6984 23.9202 22.224C24.4228 21.7496 24.6741 21.1893 24.6741 20.5431C24.6741 19.8968 24.4228 19.3475 23.9202 18.8951C23.4176 18.4427 22.8074 18.2166 22.0894 18.2166C21.3715 18.2166 20.749 18.4427 20.2219 18.8951C19.6949 19.3475 19.4313 19.8968 19.4313 20.5431C19.4313 21.1893 19.6949 21.7496 20.2219 22.224C20.749 22.6984 21.3715 22.9357 22.0894 22.9357ZM22.0319 27.6173C22.9612 27.6173 23.8003 27.4425 24.5492 27.093C25.2982 26.7434 25.9362 26.244 26.4632 25.5948C25.742 25.2453 25.0213 24.9831 24.3012 24.8083C23.581 24.6335 22.8321 24.5461 22.0543 24.5461C21.2765 24.5461 20.5201 24.6335 19.785 24.8083C19.0499 24.9831 18.3356 25.2453 17.6422 25.5948C18.1692 26.244 18.8003 26.7434 19.5354 27.093C20.2705 27.4425 21.1026 27.6173 22.0319 27.6173ZM13.3148 30.0518C9.48682 29.2528 6.31068 27.2989 3.78641 24.1903C1.26214 21.0817 0 17.5174 0 13.4975V4.54614L13.3148 0.0517578L26.6297 4.54614V14.6585C26.2413 14.4837 25.8252 14.3277 25.3814 14.1903C24.9376 14.053 24.5215 13.9594 24.1331 13.9094V6.11917L13.3148 2.52367L2.49653 6.11917V13.4975C2.49653 15.3951 2.83634 17.1429 3.51595 18.7409C4.19556 20.3389 5.06241 21.7434 6.1165 22.9544C7.1706 24.1654 8.33564 25.1704 9.61165 25.9694C10.8877 26.7684 12.1221 27.3426 13.3148 27.6922C13.4813 27.9918 13.7309 28.3289 14.0638 28.7034C14.3967 29.078 14.6741 29.3651 14.896 29.5649C14.6463 29.6897 14.3828 29.7833 14.1054 29.8458C13.828 29.9082 13.5645 29.9769 13.3148 30.0518ZM22.1567 30.0518C20.0069 30.0518 18.1692 29.3589 16.6435 27.9731C15.1179 26.5873 14.3551 24.9456 14.3551 23.048C14.3551 21.0896 15.1178 19.4202 16.6431 18.0398C18.1685 16.6595 20.0133 15.9694 22.1775 15.9694C24.3135 15.9694 26.1512 16.6595 27.6907 18.0398C29.2302 19.4202 30 21.0896 30 23.048C30 24.9456 29.2302 26.5873 27.6907 27.9731C26.1512 29.3589 24.3065 30.0518 22.1567 30.0518Z" fill="black"/>
</svg>
