<svg width="31" height="31" viewBox="0 0 31 31" fill="none" xmlns="http://www.w3.org/2000/svg">
<path d="M2.4165 30.1665C1.8165 30.1665 1.2915 29.9415 0.841504 29.4915C0.391504 29.0415 0.166504 28.5165 0.166504 27.9165V9.9165C0.166504 9.3165 0.391504 8.7915 0.841504 8.3415C1.2915 7.8915 1.8165 7.6665 2.4165 7.6665H11.304V2.4165C11.304 1.8165 11.529 1.2915 11.979 0.841504C12.429 0.391504 12.954 0.166504 13.554 0.166504H16.8165C17.4165 0.166504 17.9415 0.391504 18.3915 0.841504C18.8415 1.2915 19.0665 1.8165 19.0665 2.4165V7.6665H27.9165C28.5165 7.6665 29.0415 7.8915 29.4915 8.3415C29.9415 8.7915 30.1665 9.3165 30.1665 9.9165V27.9165C30.1665 28.5165 29.9415 29.0415 29.4915 29.4915C29.0415 29.9415 28.5165 30.1665 27.9165 30.1665H2.4165ZM2.4165 27.9165H27.9165V9.9165H19.0665C19.0665 10.6165 18.8353 11.1665 18.3728 11.5665C17.9103 11.9665 17.329 12.1665 16.629 12.1665H13.704C13.029 12.1665 12.4603 11.9665 11.9978 11.5665C11.5353 11.1665 11.304 10.6165 11.304 9.9165H2.4165V27.9165ZM5.8665 23.904H14.829V23.379C14.829 22.929 14.7165 22.529 14.4915 22.179C14.2665 21.829 13.979 21.5915 13.629 21.4665C12.829 21.1915 12.204 21.0103 11.754 20.9228C11.304 20.8353 10.8665 20.7915 10.4415 20.7915C9.9665 20.7915 9.46025 20.8478 8.92275 20.9603C8.38525 21.0728 7.779 21.2415 7.104 21.4665C6.729 21.5915 6.429 21.829 6.204 22.179C5.979 22.529 5.8665 22.929 5.8665 23.379V23.904ZM18.4665 21.3915H24.8415V19.5165H18.4665V21.3915ZM10.4415 19.5165C11.004 19.5165 11.4821 19.3196 11.8759 18.9259C12.2696 18.5321 12.4665 18.054 12.4665 17.4915C12.4665 16.929 12.2696 16.4509 11.8759 16.0571C11.4821 15.6634 11.004 15.4665 10.4415 15.4665C9.879 15.4665 9.40088 15.6634 9.00713 16.0571C8.61338 16.4509 8.4165 16.929 8.4165 17.4915C8.4165 18.054 8.61338 18.5321 9.00713 18.9259C9.40088 19.3196 9.879 19.5165 10.4415 19.5165ZM18.4665 17.154H24.8415V15.279H18.4665V17.154ZM13.554 9.9165H16.8165V2.4165H13.554V9.9165Z" fill="black"/>
</svg>
